<svg version="1.2" xmlns="http://www.w3.org/2000/svg" viewBox="0 0 709 690" width="709" height="690">
	<title>after-effects-cc-logo-svgrepo-com-svg</title>
	<defs>
		<radialGradient id="g1" cx="0" cy="0" r="1" gradientUnits="userSpaceOnUse" gradientTransform="matrix(414.712,0,0,414.712,261.521,198.5)">
			<stop offset="0" stop-color="#442f55" stop-opacity=".98"/>
			<stop offset="1" stop-color="#12002c" stop-opacity="1"/>
		</radialGradient>
	</defs>
	<style>
		.s0 { fill: url(#g1) } 
		.s1 { fill: #d8a1ff } 
	</style>
	<path id="Layer" class="s0" d="m81.8 79.5h545.7v530.8h-545.7z"/>
	<path id="Layer" fill-rule="evenodd" class="s1" d="m57 54.7h595.3v580.4h-595.3zm24.8 555.6h545.7v-530.8h-545.7zm346-241.3q0-0.2 0-0.5zm54.1 55.6c14.6 0 27.3-2 40.4-7.7 1.7-0.8 3-0.5 3 1.7v31c0 2.5-0.8 3.7-2.5 5-13.1 6.4-29.5 9.4-49.8 9.4-65.5 0-90.1-48.4-90.1-102.2 0-58.5 30.3-106.4 83.6-106.4 54.1 0 72.9 45.4 72.9 82.4 0 11.9-0.7 21.5-2 26.3-0.5 1.9-1.2 2.7-3.2 3.2-4.9 0.7-19.6 1.7-41.4 1.7h-65c0.7 33.2 16.6 55.6 54.1 55.6zm-3.7-90.1c12.6 0 17.1 0 18.3-0.5 0-1.7 0.5-2.9 0.5-4.2 0-13.4-6.4-38.2-32.2-38.2-23.8 0-34 20.9-36.5 42.9zm-253 48.9l-19.6 74.2c-0.5 1.9-1.2 2.7-3.7 2.7h-36.5c-2.4 0-2.9-0.8-2.4-3.7l70.4-246.3c1.2-4.5 2-8 2.5-20.4 0-1.7 0.7-2.4 2-2.4h52c1.8 0 2.5 0.4 3 2.4l78.9 267.2c0.5 1.9 0 3.2-2 3.2h-40.9c-2 0-3.2-0.8-3.7-2.5l-20.4-74.4c0 0-79.6 0-79.6 0zm69.7-40.2c-6.9-27.5-23.8-87.5-30-116.6h-0.5c-5.2 29.1-18.9 78.2-29 116.6z"/>
</svg>